<svg height="512" viewBox="0 0 512 512" width="512" xmlns="http://www.w3.org/2000/svg"><g id="Filled_outline" data-name="Filled outline"><path d="m35.383 148.52h441.235v214.96h-441.235z" fill="#7a432a" transform="matrix(.707 -.707 .707 .707 -106.039 256)"/><path d="m488 176-312 312-97.84-97.84c152.44-49.26 259.35-112.7 374.13-249.87z" fill="#6e3c26"/><g fill="#92563a"><path d="m307.716 83.716h56.569v56.569h-56.569z" transform="matrix(.707 -.707 .707 .707 19.216 270.392)"/><path d="m371.716 147.716h56.569v56.569h-56.569z" transform="matrix(.707 -.707 .707 .707 -7.294 334.392)"/><path d="m243.716 147.716h56.569v56.569h-56.569z" transform="matrix(.707 -.707 .707 .707 -44.784 243.882)"/><path d="m307.716 211.716h56.569v56.569h-56.569z" transform="matrix(.707 -.707 .707 .707 -71.294 307.882)"/><path d="m179.716 211.716h56.569v56.569h-56.569z" transform="matrix(.707 -.707 .707 .707 -108.784 217.373)"/></g><path d="m93.373 288.52h45.255v214.96h-45.255z" fill="#ffb531" transform="matrix(.707 -.707 .707 .707 -246.039 198.01)"/><path d="m384 280-176 176-152-152 88-88 182.28 48.61z" fill="#f35244"/><path d="m384 280-176 176-82.27-82.27c75.25-27.82 139.52-61.32 200.55-109.12z" fill="#e64c3f"/><path d="m208 456-32 32-97.84-97.84q24.54-7.935 47.57-16.43z" fill="#ffa912"/><path d="m144 216 128 104 112-40z" fill="#f2dec2"/><path d="m493.657 170.343-152-152a8 8 0 0 0 -11.314 0l-172.667 172.667 11.314 11.313 167.01-167.009 140.687 140.686-95.087 95.081-235.538-62.811a8.005 8.005 0 0 0 -7.719 2.073l-120 120a8 8 0 0 0 0 11.314l152 152a8 8 0 0 0 11.314 0l312-312a8 8 0 0 0 0-11.314zm-136.548 110.766-83.559 29.843-95.5-77.591zm-181.109 195.577-140.687-140.686 20.687-20.686 140.686 140.686zm32-32-140.687-140.686 71.767-71.766 5.475-5.475 122.4 99.45a8 8 0 0 0 7.735 1.325l78.5-28.034zm133.657-378.343a8 8 0 0 0 -11.314 0l-40 40a8 8 0 0 0 0 11.314l40 40a8 8 0 0 0 11.314 0l40-40a8 8 0 0 0 0-11.314zm-5.657 74.344-28.687-28.687 28.687-28.687 28.687 28.687zm64 83.313a7.974 7.974 0 0 0 5.657-2.343l40-40a8 8 0 0 0 0-11.314l-40-40a8 8 0 0 0 -11.314 0l-40 40a8 8 0 0 0 0 11.314l40 40a7.974 7.974 0 0 0 5.657 2.343zm0-76.687 28.687 28.687-28.687 28.687-28.687-28.687zm-133.657-16.97-40 40a8 8 0 0 0 0 11.314l40 40a8 8 0 0 0 11.314 0l40-40a8 8 0 0 0 0-11.314l-40-40a8 8 0 0 0 -11.314 0zm5.657 74.344-28.687-28.687 28.687-28.687 28.687 28.687zm90.343 37.656 2.344-2.343-28.687-28.687-26.343 26.344-11.314-11.314 32-32a8 8 0 0 1 11.314 0l40 40a8 8 0 0 1 0 11.314l-8 8zm-240 32 11.314 11.314-32 32-11.314-11.314zm24-24 11.314 11.314-12.75 12.75-11.314-11.314z"/></g></svg>